<?xml version="1.0" standalone="no"?>
<!DOCTYPE svg PUBLIC "-//W3C//DTD SVG 20010904//EN"
 "http://www.w3.org/TR/2001/REC-SVG-20010904/DTD/svg10.dtd">
<svg version="1.0" xmlns="http://www.w3.org/2000/svg"
 width="512.000000pt" height="512.000000pt" viewBox="0 0 512.000000 512.000000"
 preserveAspectRatio="xMidYMid meet" style="color: inherit;">

<g transform="translate(0.000000,512.000000) scale(0.100000,-0.100000)"
fill="currentColor" stroke="none" style="color: inherit;">
<path d="M848 4273 l-78 -4 0 -749 0 -750 84 0 85 0 16 58 c9 31 19 66 22 77
3 11 19 47 35 80 181 363 582 537 953 414 425 -141 644 -575 509 -1007 -62
-195 -202 -357 -396 -457 -119 -62 -214 -85 -347 -85 -158 0 -277 33 -411 112
-197 118 -347 345 -375 571 l-7 57 -84 0 -84 0 0 -450 0 -451 88 3 87 3 3 176
2 177 68 -70 c191 -199 442 -308 706 -308 170 0 287 29 446 112 222 114 399
325 471 558 13 41 26 79 29 83 15 18 19 -239 17 -1071 l-2 -872 88 0 87 0 0
781 0 780 76 -76 c130 -129 291 -222 472 -271 31 -8 116 -18 187 -21 215 -9
384 38 563 157 108 71 240 208 306 318 56 94 110 244 127 352 18 114 6 296
-25 403 -174 589 -820 881 -1357 611 -246 -123 -432 -343 -504 -599 -10 -33
-20 -63 -24 -67 -4 -5 -15 22 -25 60 -38 145 -141 318 -259 433 -254 249 -625
336 -967 227 -152 -49 -295 -141 -405 -261 -36 -39 -65 -75 -65 -79 0 -4 -4
-8 -10 -8 -7 0 -10 183 -10 530 0 292 -3 529 -7 528 -5 -1 -43 -4 -85 -5z
m2977 -858 c263 -70 495 -292 569 -543 55 -188 36 -402 -51 -576 -45 -90 -63
-117 -143 -200 -155 -163 -348 -246 -570 -246 -358 0 -661 237 -761 595 -31
109 -31 285 -1 396 79 291 317 518 612 584 81 18 260 13 345 -10z"/>
</g>
</svg>
