<?xml version="1.0" standalone="no"?>
<!DOCTYPE svg PUBLIC "-//W3C//DTD SVG 20010904//EN"
 "http://www.w3.org/TR/2001/REC-SVG-20010904/DTD/svg10.dtd">
<svg version="1.0" xmlns="http://www.w3.org/2000/svg"
 width="422.000000pt" height="470.000000pt" viewBox="0 0 422.000000 470.000000"
 preserveAspectRatio="xMidYMid meet" currentColor="fill">

<g transform="translate(0.000000,470.000000) scale(0.100000,-0.100000)"
fill="currentColor" currentColor="fill" stroke="none">
<path d="M2045 4505 l-7 -175 -162 0 c-90 0 -165 -2 -167 -4 -2 -2 -2 -27 -1
-55 l4 -51 166 -2 167 -3 0 -421 0 -421 -55 -64 c-50 -58 -258 -294 -334 -379
-18 -19 -110 -125 -206 -234 -272 -309 -508 -577 -779 -881 -83 -93 -151 -173
-151 -177 0 -8 62 -68 70 -68 3 0 41 36 85 80 44 44 83 80 87 80 5 0 8 -359 8
-798 0 -607 -3 -801 -12 -810 -9 -9 -107 -12 -381 -12 l-368 0 3 -52 3 -53
2095 0 2095 0 3 52 3 53 -383 2 -383 3 -3 795 c-1 437 0 800 2 807 3 6 42 -26
87 -72 l82 -84 38 32 c21 18 39 37 39 42 0 6 -30 44 -67 86 -100 111 -186 208
-319 360 -128 145 -264 299 -323 364 -20 22 -84 94 -141 160 -108 124 -255
290 -319 360 -92 100 -318 360 -339 388 l-22 32 2 415 3 415 173 3 172 2 0 55
0 55 -97 2 c-54 1 -123 0 -155 -1 -99 -5 -98 -6 -98 184 l0 165 -54 0 -54 0
-7 -175z m174 -1375 c57 -63 118 -131 135 -150 18 -19 81 -91 141 -160 60 -69
115 -129 122 -135 11 -8 13 -253 11 -1290 l-3 -1280 -520 0 -520 0 -3 1277 -2
1278 77 87 c43 49 80 90 83 93 18 17 336 384 339 392 8 23 44 -5 140 -112z
m-757 -687 c2 -38 1 -576 -2 -1198 l-5 -1130 -279 -3 c-196 -2 -282 1 -286 9
-4 6 -5 407 -2 892 l5 882 76 85 c81 91 92 103 252 280 57 63 130 146 163 183
32 37 62 67 67 67 4 0 9 -30 11 -67z m1499 -150 c107 -119 199 -221 204 -227
6 -6 44 -49 85 -94 l75 -84 2 -884 3 -884 -22 -5 c-13 -3 -142 -4 -288 -3
l-265 3 -3 1198 c-1 692 2 1197 7 1197 5 0 96 -97 202 -217z"/>
</g>
</svg>
